<svg xmlns="http://www.w3.org/2000/svg" width="250" height="250" viewBox="0 0 250 250" fill="none">
<path d="M 126.94,8.67 V 41.82 C 133.44,43.91 135.49,49.79 133.89,55.71 C 165.83,59.79 189.89,83.88 189.89,122.86 C 189.89,157.79 170.37,186.72 128.65,191.11 C 127.97,191.11 128.28,187.71 133.95,185.01 C 140.16,182.09 151.07,176.98 153.06,165.21 H 158.42 C 163.34,165.21 163.19,157.85 158.42,157.85 H 157.74 V 93.38 C 163.52,93.38 163.11,86.26 158.42,86.26 H 153.31 C 151.07,72.31 139.42,69.01 131.74,64.19 C 129.09,62.53 129.14,60.11 129.14,60.11 L 127.79,57.36 C 129.61,55.76 130.31,54.39 130.31,51.71 C 130.31,47.49 127.48,46.09 125.08,46.09 C 121.93,46.09 120.04,48.41 120.04,51.52 C 120.04,53.71 120.72,55.11 122.17,56.86 L 120.21,59.61 C 120.21,59.61 120.46,62.03 117.23,63.81 C 108.97,68.27 98.62,72.31 96.55,85.99 H 91.76 C 87.07,85.99 87.01,93.38 91.93,93.38 V 157.32 H 91.31 C 86.95,157.32 87.18,165.21 91.31,165.21 H 96.55 C 98.85,177.78 107.11,180.31 116.31,187.01 C 120.89,190.41 120.89,191.46 120.89,191.46 H 104.03 V 240.32 C 111.07,241.69 117.39,242.11 124.42,242.11 C 186.82,242.11 242.11,189.68 242.11,125.48 C 242.11,64.93 192.06,8.67 126.94,8.67 Z" fill="url(#paint0_linear_32_1208)"/>
<path d="M 72.24,54.91 V 228.91 C 35.72,210.06 8.39,171.87 8.39,125.69 C 8.39,66.04 57.14,8.83 122.37,8.67 V 41.41 C 115.81,43.27 114.13,49.79 115.79,54.91 H 72.24 Z" fill="url(#paint1_linear_32_1208)"/>
<path d="M 103.49,103.3 C 101.61,103.3 98.91,109.17 98.91,110.88 C 98.91,112.09 99.26,113.41 99.82,114.41 C 98.96,114.94 98.09,115.76 98.09,117.11 V 154.94 H 107.4 V 116.7 C 107.4,115.43 106.63,114.61 105.71,114.03 C 106.33,113.11 106.74,112.35 106.74,110.88 C 106.74,109.11 104.62,103.3 103.49,103.3 Z" fill="white"/>
<path d="M 146.87,103.83 C 145.42,104.93 142.71,109.81 142.71,111.25 C 142.71,112.29 143.12,113.28 143.75,114.09 C 142.83,114.72 141.91,115.64 141.91,116.94 V 154.94 H 151.92 V 117.23 C 151.92,115.47 151.35,114.55 150.31,113.79 C 150.94,112.75 151.35,111.65 151.35,110.38 C 151.35,108.06 148.41,103.83 146.87,103.83 Z" fill="white"/>
<path d="M 124.85,98.44 C 119.49,102.35 115.08,104.71 115.08,110.26 C 115.08,112.18 116.06,113.62 117.15,115.06 C 115.41,115.78 114.38,116.88 114.38,118.74 V 154.94 H 135.51 V 117.58 C 135.51,115.81 134.75,115.13 132.51,114.61 C 133.95,112.84 134.69,111.45 134.69,108.92 C 134.69,103.92 129.26,101.17 124.85,98.44 Z" fill="white"/>
<path d="M 190.82,86.08 C 188.69,86.08 188.12,83.05 189.51,81.34 L 205.91,65.61 C 208.21,63.42 210.91,66.71 210.05,68.53 L 192.61,85.3 C 192.09,85.82 191.47,86.08 190.82,86.08 Z" fill="url(#paint2_linear_32_1208)"/>
<path d="M 196.97,106.49 C 194.49,106.49 194.09,102.64 196.62,101.72 L 209.36,97.01 C 213.01,95.57 213.71,100.88 211.06,101.72 L 198.15,106.29 C 197.75,106.43 197.37,106.49 196.97,106.49 Z" fill="url(#paint3_linear_32_1208)"/>
<path d="M 226.71,127.09 H 201.44 C 197.92,127.09 198.15,122.09 200.99,122.09 H 226.82 C 229.91,122.09 229.74,127.09 226.71,127.09 Z" fill="url(#paint4_linear_32_1208)"/>
<path d="M 210.28,153.18 L 196.68,147.81 C 193.85,146.66 194.83,142.53 197.72,143.31 L 210.74,148.5 C 214.2,149.89 213.34,154.24 210.28,153.18 Z" fill="url(#paint5_linear_32_1208)"/>
<path d="M 207.45,184.1 L 189.11,167.81 C 187.04,165.89 188.91,163.08 190.93,163.96 L 208.99,180.61 C 211.23,182.76 209.36,185.46 207.45,184.1 Z" fill="url(#paint6_linear_32_1208)"/>
<path d="M 62.65,85.56 L 44.86,69.01 C 42.62,66.77 44.86,63.96 47.34,65.28 L 64.55,82.35 C 67.08,84.61 65.21,87.14 62.65,85.56 Z" fill="url(#paint7_linear_32_1208)"/>
<path d="M 56.92,106.49 L 42.91,101.28 C 40.19,100.12 41.23,96.04 44.46,97.19 L 57.77,102.64 C 61.11,103.86 60.43,107.49 56.92,106.49 Z" fill="url(#paint8_linear_32_1208)"/>
<path d="M 52.45,127.09 H 27.01 C 24.18,127.09 23.83,122.09 26.95,122.09 H 52.62 C 56.14,122.09 56.03,127.09 52.45,127.09 Z" fill="url(#paint9_linear_32_1208)"/>
<path d="M 43.91,153.18 C 41.38,153.18 40.34,149.05 43.45,147.81 L 55.85,143.02 C 59.92,141.42 60.15,146.92 57.77,147.81 L 45.26,152.83 C 44.74,153.06 44.34,153.18 43.91,153.18 Z" fill="url(#paint10_linear_32_1208)"/>
<path d="M 46.36,184.21 C 44.43,184.21 43.14,181.63 45.32,179.71 L 61.98,164.81 C 64.63,162.22 66.56,165.46 65.01,168.05 L 48.72,183.36 C 48.04,183.93 47.18,184.21 46.36,184.21 Z" fill="url(#paint11_linear_32_1208)"/>
<defs>
<linearGradient id="paint0_linear_32_1208" x1="141.022" y1="8.66663" x2="141.022" y2="242.106" gradientUnits="userSpaceOnUse">
<stop stop-color="#E3380E"/>
<stop offset="1" stop-color="#9D121F"/>
</linearGradient>
<linearGradient id="paint1_linear_32_1208" x1="65.3806" y1="8.66663" x2="65.3806" y2="228.911" gradientUnits="userSpaceOnUse">
<stop stop-color="#E3380E"/>
<stop offset="1" stop-color="#9D121F"/>
</linearGradient>
<linearGradient id="paint2_linear_32_1208" x1="199.27" y1="64.7611" x2="199.27" y2="86.0761" gradientUnits="userSpaceOnUse">
<stop stop-color="#F6A651"/>
<stop offset="1" stop-color="#D46A2B"/>
</linearGradient>
<linearGradient id="paint3_linear_32_1208" x1="203.606" y1="96.6658" x2="203.606" y2="106.488" gradientUnits="userSpaceOnUse">
<stop stop-color="#F6A651"/>
<stop offset="1" stop-color="#D46A2B"/>
</linearGradient>
<linearGradient id="paint4_linear_32_1208" x1="213.621" y1="122.087" x2="213.621" y2="127.087" gradientUnits="userSpaceOnUse">
<stop stop-color="#F6A651"/>
<stop offset="1" stop-color="#D46A2B"/>
</linearGradient>
<linearGradient id="paint5_linear_32_1208" x1="203.777" y1="143.102" x2="203.777" y2="153.488" gradientUnits="userSpaceOnUse">
<stop stop-color="#F6A651"/>
<stop offset="1" stop-color="#D46A2B"/>
</linearGradient>
<linearGradient id="paint6_linear_32_1208" x1="199.191" y1="163.68" x2="199.191" y2="184.462" gradientUnits="userSpaceOnUse">
<stop stop-color="#F6A651"/>
<stop offset="1" stop-color="#D46A2B"/>
</linearGradient>
<linearGradient id="paint7_linear_32_1208" x1="54.7121" y1="64.8498" x2="54.7121" y2="86.0739" gradientUnits="userSpaceOnUse">
<stop stop-color="#F6A651"/>
<stop offset="1" stop-color="#D46A2B"/>
</linearGradient>
<linearGradient id="paint8_linear_32_1208" x1="49.979" y1="96.823" x2="49.979" y2="106.742" gradientUnits="userSpaceOnUse">
<stop stop-color="#F6A651"/>
<stop offset="1" stop-color="#D46A2B"/>
</linearGradient>
<linearGradient id="paint9_linear_32_1208" x1="39.782" y1="122.087" x2="39.782" y2="127.087" gradientUnits="userSpaceOnUse">
<stop stop-color="#F6A651"/>
<stop offset="1" stop-color="#D46A2B"/>
</linearGradient>
<linearGradient id="paint10_linear_32_1208" x1="49.9004" y1="142.77" x2="49.9004" y2="153.177" gradientUnits="userSpaceOnUse">
<stop stop-color="#F6A651"/>
<stop offset="1" stop-color="#D46A2B"/>
</linearGradient>
<linearGradient id="paint11_linear_32_1208" x1="54.7121" y1="163.637" x2="54.7121" y2="184.213" gradientUnits="userSpaceOnUse">
<stop stop-color="#F6A651"/>
<stop offset="1" stop-color="#D46A2B"/>
</linearGradient>
</defs>
</svg>
